
			<svg id="cryptosuits" viewBox="0 0 26 26">
				<svg id="layer0" viewBox="0 0 26 26"><desc>Created with Snap</desc><defs></defs><!--?xml version="1.0" encoding="utf-8"?-->
<!-- Generator: Adobe Illustrator 25.2.1, SVG Export Plug-In . SVG Version: 6.00 Build 0)  -->
<svg version="1.1" id="base_1_" xmlns="http://www.w3.org/2000/svg" xmlns:xlink="http://www.w3.org/1999/xlink" x="0px" y="0px" viewBox="0 0 26 26" style="enable-background:new 0 0 26 26;" xml:space="preserve">
<style type="text/css">
	.ba0{opacity:0.25;}
	.ba1{fill:#FFFFFF;}
	.ba2{opacity:0.2;}
	.ba3{opacity:0.4;}
</style>
<path id="skincolor" d="M19,23v-1h-1h-1h-1h-1h-1h-1h-1v-1v-1v-1h1h1h1h1h1v-1h1v-1v-1v-1v-1v-1v-1v-1v-1V9V8V7V6V5h-1V4h-1h-1h-1
	h-1h-1h-1h-1v1H9v1v1v1v1v1H8v1v1h1v1v1v1v1v1v1v1v1v1v1H8H7H6H5H4H3v1H2v1v2h1h1h1h1h1h1h1h1h1h1h1h1h1h1h1h1h1h1v-2v-1H19z M16,14
	h-1h-1v-1h1h1V14z" fill="#ebdada" style=""></path>
<g id="shine" class="ba0">
	<rect x="10" y="6" class="ba1" width="1" height="1"></rect>
	<rect x="11" y="5" class="ba1" width="1" height="1"></rect>
</g>
<g>
	<polygon points="20,23 20,24 20,25 20,26 21,26 21,25 21,24 21,23 	"></polygon>
	<polygon points="1,24 1,25 1,26 2,26 2,25 2,24 2,23 1,23 	"></polygon>
	<rect x="19" y="22" width="1" height="1"></rect>
	<rect x="2" y="22" width="1" height="1"></rect>
	<polygon points="18,21 17,21 16,21 15,21 14,21 13,21 13,20 14,20 15,20 16,20 17,20 17,19 16,19 15,19 14,19 13,19 12,19 12,20 
		12,21 12,22 13,22 14,22 15,22 16,22 17,22 18,22 19,22 19,21 	"></polygon>
	<rect x="17" y="18" width="1" height="1"></rect>
	<polygon points="19,17 19,16 19,15 19,14 19,13 19,12 19,11 19,10 19,9 19,8 19,7 19,6 19,5 18,5 18,6 18,7 18,8 18,9 18,10 18,11 
		18,12 18,13 18,14 18,15 18,16 18,17 18,18 19,18 	"></polygon>
	<polygon points="16,14 16,13 15,13 14,13 14,14 15,14 	"></polygon>
	<polygon points="7,11 7,12 7,13 8,13 8,14 8,15 8,16 8,17 8,18 8,19 8,20 8,21 7,21 6,21 5,21 4,21 3,21 3,22 4,22 5,22 6,22 7,22 
		8,22 9,22 9,21 9,20 9,19 9,18 9,17 9,16 9,15 9,14 9,13 9,12 8,12 8,11 8,10 7,10 	"></polygon>
	<polygon points="8,6 8,7 8,8 8,9 8,10 9,10 9,9 9,8 9,7 9,6 9,5 8,5 	"></polygon>
	<rect x="17" y="4" width="1" height="1"></rect>
	<rect x="9" y="4" width="1" height="1"></rect>
	<polygon points="16,3 15,3 14,3 13,3 12,3 11,3 10,3 10,4 11,4 12,4 13,4 14,4 15,4 16,4 17,4 17,3 	"></polygon>
</g>
<polygon id="lips" points="13,16 13,17 14,17 15,17 16,17 16,16 15,16 14,16 "></polygon>
<g id="eyes_1_">
	<g class="ba2">
		<rect x="17" y="10" width="1" height="1"></rect>
		<rect x="12" y="10" width="1" height="1"></rect>
	</g>
	<g class="ba3">
		<rect x="17" y="9" width="1" height="1"></rect>
		<rect x="16" y="9" width="1" height="1"></rect>
	</g>
	<g class="ba3">
		<rect x="12" y="9" width="1" height="1"></rect>
		<rect x="11" y="9" width="1" height="1"></rect>
	</g>
	<g id="eyes">
		<rect x="16" y="10" width="1" height="1"></rect>
		<rect x="11" y="10" width="1" height="1"></rect>
	</g>
</g>
<desc>Created with Snap</desc><defs></defs></svg>
</svg>
				<svg id="layer1" viewBox="0 0 26 26"><desc>Created with Snap</desc><defs></defs></svg>
				<svg id="layer2" viewBox="0 0 26 26"><desc>Created with Snap</desc><defs></defs></svg>
				<svg id="layer3" viewBox="0 0 26 26"><desc>Created with Snap</desc><defs></defs></svg>
				<svg id="layer4" viewBox="0 0 26 26"><desc>Created with Snap</desc><defs></defs></svg>
				<svg id="layer5" viewBox="0 0 26 26"><desc>Created with Snap</desc><defs></defs></svg>
				<svg id="layer6" viewBox="0 0 26 26"><desc>Created with Snap</desc><defs></defs></svg>
				<svg id="layer7" viewBox="0 0 26 26"><desc>Created with Snap</desc><defs></defs></svg>
				<svg id="layer8" viewBox="0 0 26 26"><desc>Created with Snap</desc><defs></defs></svg>
				<svg id="layer9" viewBox="0 0 26 26"><desc>Created with Snap</desc><defs></defs></svg>
			<desc>Created with Snap</desc><defs></defs></svg>
			